<?xml version="1.0" encoding="UTF-8" standalone="no"?>
<!-- Created with Inkscape (http://www.inkscape.org/) -->

<svg
   xmlns:dc="http://purl.org/dc/elements/1.1/"
   xmlns:cc="http://creativecommons.org/ns#"
   xmlns:rdf="http://www.w3.org/1999/02/22-rdf-syntax-ns#"
   xmlns:svg="http://www.w3.org/2000/svg"
   xmlns="http://www.w3.org/2000/svg"
   xmlns:sodipodi="http://sodipodi.sourceforge.net/DTD/sodipodi-0.dtd"
   xmlns:inkscape="http://www.inkscape.org/namespaces/inkscape"
   width="744.09448819"
   height="1052.3622047"
   id="svg2"
   version="1.1"
   inkscape:version="0.48.3.1 r9886"
   sodipodi:docname="New document 1">
  <defs
     id="defs4" />
  <sodipodi:namedview
     id="base"
     pagecolor="#ffffff"
     bordercolor="#666666"
     borderopacity="1.0"
     inkscape:pageopacity="0.0"
     inkscape:pageshadow="2"
     inkscape:zoom="1.24"
     inkscape:cx="375"
     inkscape:cy="813.34505"
     inkscape:document-units="px"
     inkscape:current-layer="layer1"
     showgrid="false"
     inkscape:window-width="1280"
     inkscape:window-height="724"
     inkscape:window-x="0"
     inkscape:window-y="24"
     inkscape:window-maximized="1" />
  <metadata
     id="metadata7">
    <rdf:RDF>
      <cc:Work
         rdf:about="">
        <dc:format>image/svg+xml</dc:format>
        <dc:type
           rdf:resource="http://purl.org/dc/dcmitype/StillImage" />
        <dc:title></dc:title>
      </cc:Work>
    </rdf:RDF>
  </metadata>
  <g
     inkscape:label="Layer 1"
     inkscape:groupmode="layer"
     id="layer1">
    <g
       transform="matrix(0.88281951,-0.0070266,0,1.1327344,0,0)"
       inkscape:transform-center-x="-17.117805"
       style="font-size:102.59790039000000661px;font-style:normal;font-variant:normal;font-weight:bold;font-stretch:normal;text-align:start;line-height:125%;letter-spacing:0px;word-spacing:0px;writing-mode:lr-tb;text-anchor:start;fill:#000080;fill-opacity:1;stroke:none;font-family:Sans;-inkscape-font-specification:Sans Bold"
       id="text2985">
      <path
         d="m 65.883353,205.58072 0,29.45682 -17.934588,0 0,-77.44939 17.934588,0 0,8.21584 c 2.471407,-3.27292 5.210017,-5.67756 8.215862,-7.21391 3.005767,-1.56964 6.462417,-2.35448 10.369999,-2.35454 6.913297,6e-5 12.590725,2.75537 17.032436,8.26594 4.44184,5.47728 6.66279,12.5409 6.66286,21.19088 -7e-5,8.65003 -2.22102,15.73035 -6.66286,21.24097 -4.441711,5.47723 -10.119139,8.21584 -17.032436,8.21585 -3.907582,-1e-5 -7.364232,-0.76815 -10.369999,-2.30445 -3.005845,-1.56969 -5.744455,-3.99103 -8.215862,-7.26401 m 11.923019,-36.32006 c -3.840777,5e-5 -6.796492,1.41945 -8.867119,4.25822 -2.037298,2.80544 -3.05593,6.86327 -3.0559,12.17348 -3e-5,5.31026 1.018602,9.38478 3.0559,12.22358 2.070627,2.80542 5.026342,4.20812 8.867119,4.20811 3.840679,10e-6 6.762992,-1.40269 8.766908,-4.20811 2.037207,-2.8054 3.055835,-6.87992 3.055885,-12.22358 -5e-5,-5.34361 -1.018678,-9.41813 -3.055885,-12.22358 -2.003916,-2.80537 -4.926229,-4.20807 -8.766908,-4.20812"
         id="path3200"
         inkscape:connector-curvature="0"
         style="fill:#000080" />
      <path
         d="m 115.35192,135.24919 17.9346,0 0,77.95035 -17.9346,0 0,-77.95035"
         id="path3202"
         inkscape:connector-curvature="0"
         style="fill:#000080" />
      <path
         d="m 140.81059,190.92681 0,-34.26609 18.03478,0 0,5.61082 c -2e-5,3.03924 -0.0167,6.86328 -0.0501,11.47213 -0.0334,4.57553 -0.0501,7.63142 -0.0501,9.16768 -3e-5,4.50872 0.11687,7.765 0.35068,9.76884 0.23375,1.97049 0.63453,3.40659 1.20232,4.30832 0.73472,1.16893 1.68655,2.07067 2.8555,2.70521 1.20229,0.63457 2.5716,0.95185 4.10793,0.95184 3.74051,1e-5 6.67951,-1.43609 8.817,-4.30831 2.13742,-2.87219 3.20614,-6.86322 3.20619,-11.9731 l 0,-27.70343 17.93459,0 0,56.10822 -17.93459,0 0,-8.11565 c -2.70526,3.27298 -5.57747,5.69432 -8.61662,7.26401 -3.00583,1.5363 -6.32891,2.30444 -9.96923,2.30445 -6.47919,-10e-6 -11.42205,-1.98717 -14.8286,-5.9615 -3.37319,-3.97433 -5.05977,-9.75213 -5.05976,-17.33344"
         id="path3204"
         inkscape:connector-curvature="0"
         style="fill:#000080" />
      <path
         d="m 249.65906,157.53749 0,13.62628 c -3.84079,-1.60305 -7.54793,-2.80536 -11.12145,-3.60695 -3.5736,-0.80151 -6.94677,-1.20228 -10.11952,-1.20232 -3.4066,4e-5 -5.94482,0.43421 -7.61469,1.30251 -1.63651,0.83499 -2.45475,2.1375 -2.45473,3.90754 -2e-5,1.43614 0.61784,2.53826 1.85357,3.30637 1.26909,0.76819 3.52344,1.33595 6.76305,1.70329 l 3.15609,0.45087 c 9.18434,1.16895 15.36292,3.08932 18.53575,5.76111 3.17273,2.67185 4.75912,6.86326 4.75918,12.57426 -6e-5,5.9782 -2.20431,10.4702 -6.61275,13.47599 -4.40855,3.0058 -10.9879,4.50869 -19.73808,4.5087 -3.70717,-10e-6 -7.54791,-0.30058 -11.52222,-0.90174 -3.94095,-0.56776 -7.99877,-1.43611 -12.17348,-2.60503 l 0,-13.62628 c 3.57355,1.7367 7.2306,3.03921 10.97116,3.90754 3.77392,0.86835 7.59796,1.30252 11.47213,1.30251 3.50673,10e-6 6.14515,-0.48426 7.91526,-1.4528 1.77005,-0.96853 2.65509,-2.40463 2.65513,-4.30831 -4e-5,-1.60308 -0.6179,-2.7887 -1.85358,-3.55687 -1.20235,-0.80152 -3.62369,-1.41938 -7.26401,-1.85357 l -3.15609,-0.40077 c -7.98208,-1.00191 -13.5762,-2.85549 -16.78237,-5.56073 -3.20619,-2.70519 -4.80928,-6.81311 -4.80928,-12.32377 0,-5.94476 2.03726,-10.35325 6.11179,-13.22551 4.07451,-2.87215 10.31989,-4.30825 18.73614,-4.30831 3.30635,6e-5 6.77971,0.25054 10.4201,0.75145 3.64031,0.50102 7.59794,1.28587 11.8729,2.35454"
         style="fill:#000080"
         id="path3206" />
    </g>
    <g
       style="font-size:48px;font-style:normal;font-variant:normal;font-weight:bold;font-stretch:normal;text-align:start;line-height:125%;letter-spacing:0px;word-spacing:0px;writing-mode:lr-tb;text-anchor:start;fill:#000000;fill-opacity:1;stroke:none;font-family:LMMonoProp10;-inkscape-font-specification:LMMonoProp10 Bold"
       id="text2989" />
    <g
       transform="matrix(0.78355392,9.250037e-4,0.02683108,1.276268,0,0)"
       inkscape:transform-center-x="-0.35004083"
       inkscape:transform-center-y="17.082162"
       style="font-size:106.34817505px;font-style:normal;font-variant:normal;font-weight:normal;font-stretch:normal;text-align:start;line-height:125%;letter-spacing:0px;word-spacing:0px;writing-mode:lr-tb;text-anchor:start;fill:#803300;fill-opacity:1;stroke:none;font-family:eufm10;-inkscape-font-specification:eufm10"
       id="text2993">
      <path
         d="m 279.64508,190.07023 -1.66169,-2.2329 c 1.38474,-1.66168 3.7561,-4.15422 7.11411,-7.4776 3.3926,-3.32337 5.4524,-4.98506 6.17941,-4.98507 7.58144,1e-5 12.82614,-2.97718 15.73413,-8.93159 2.90792,-5.98898 4.3619,-13.22425 4.36194,-21.70583 -4e-5,-8.61996 -1.71366,-14.64358 -5.14086,-18.07088 -3.39264,-3.39255 -6.97566,-5.08886 -10.74906,-5.08892 -1.76556,6e-5 -3.44456,0.32894 -5.03699,0.98663 -1.55785,0.65781 -2.80412,1.64444 -3.73881,2.95988 -0.93471,1.28095 -1.40206,2.80416 -1.40205,4.56965 -10e-6,2.49259 1.5232,5.33131 4.56965,8.51616 3.3926,3.56576 5.08891,6.57757 5.08893,9.03544 -2e-5,1.76559 -0.67509,3.61768 -2.02519,5.55628 -1.35014,1.93867 -2.97721,3.68691 -4.88121,5.24471 -1.90404,1.52324 -3.73882,2.63104 -5.50435,3.32338 l -2.2329,-1.71362 c 2.21558,-1.14238 3.89458,-2.25017 5.037,-3.32338 1.17702,-1.10776 1.76553,-2.61367 1.76554,-4.51772 -10e-6,-1.59241 -1.14242,-3.68683 -3.42723,-6.28327 -1.90403,-2.25016 -3.3407,-4.11956 -4.31001,-5.6082 -0.93471,-1.48855 -1.40205,-3.02907 -1.40205,-4.62158 0,-4.11955 2.26751,-8.44686 6.80254,-12.98195 2.31943,-2.31938 5.0543,-4.11954 8.2046,-5.40049 3.18488,-1.28082 6.47364,-1.92126 9.86628,-1.92133 7.85838,7e-5 13.34541,4.32738 16.46112,12.98195 2.04245,-2.25014 4.20611,-4.37918 6.49098,-6.38712 2.31939,-2.00781 5.05425,-4.20608 8.2046,-6.59483 3.08098,3.25421 5.55621,5.97176 7.42567,8.15266 1.86934,2.14642 3.15022,3.96389 3.84266,5.45243 3.53102,-3.70413 6.94094,-6.88903 10.22978,-9.55472 3.3233,-2.70018 6.33511,-4.0503 9.03544,-4.05037 2.87325,7e-5 6.83707,1.69638 11.89147,5.08892 1.90392,1.28096 3.96372,1.9214 6.17942,1.92133 1.55772,7e-5 2.90784,-0.27688 4.05037,-0.83084 l -0.67507,2.33675 c -2.49264,1.83484 -4.44859,3.54846 -5.86784,5.14085 -1.38485,1.59251 -2.44071,3.46191 -3.1676,5.60821 -0.69247,2.11178 -1.03865,4.587 -1.03855,7.42568 -1e-4,2.21563 0.17299,4.62161 0.51927,7.21796 0.41533,3.6696 0.70958,6.76796 0.88278,9.29508 0.20761,2.52718 0.31146,4.93317 0.31156,7.21797 -1e-4,6.09288 -1.35022,10.42019 -4.05037,12.98195 -2.18106,2.07712 -4.5005,4.06769 -6.95832,5.9717 -2.42339,1.86941 -5.00247,3.66957 -7.73725,5.4005 -2.14643,0.55389 -4.20623,0.83084 -6.17941,0.83084 -3.25422,0 -6.47374,-0.67506 -9.65857,-2.02518 -3.49654,-1.4886 -6.43911,-2.6137 -8.82773,-3.37531 -2.38874,-0.79622 -4.72549,-1.19434 -7.01026,-1.19434 -5.3313,2.52715 -9.48552,4.79467 -12.46268,6.80254 -0.34622,0 -0.64048,0 -0.88277,0 -0.20775,0.0346 -0.45008,0.0692 -0.72699,0.10386 -4.6043,0 -9.17394,-1.33282 -13.70894,-3.99844 -1.80019,-1.14241 -3.4965,-2.07711 -5.08893,-2.80411 -1.55785,-0.7616 -2.87335,-1.1424 -3.94651,-1.14241 -1.66171,1e-5 -3.35801,0.62314 -5.08893,1.8694 -1.69632,1.21166 -3.58303,2.82142 -5.66013,4.82929 m 56.08204,-12.46268 c 1.9732,2e-5 4.34457,0.55391 7.11412,1.66169 2.76941,1.10781 6.24857,2.64833 10.43749,4.62158 1.59237,0.79623 3.46177,1.19434 5.6082,1.19434 1.59237,0 3.09827,-0.48466 4.51772,-1.45398 1.41927,-1.00393 2.54437,-2.23289 3.37531,-3.68687 0.83075,-1.48859 1.35003,-3.13297 1.55783,-4.93315 0.20762,-1.83476 0.31148,-4.08497 0.31157,-6.75061 -9e-5,-3.35798 -0.24242,-7.40834 -0.72699,-12.15111 -0.34628,-3.28873 -0.51937,-6.26592 -0.51928,-8.93159 -9e-5,-2.42325 0.13839,-4.41382 0.41543,-5.9717 0.31147,-1.55778 0.7442,-2.75212 1.29819,-3.58302 0.5538,-0.86541 1.62698,-2.12898 3.21953,-3.79073 1.62697,-1.69625 2.78669,-2.94252 3.47916,-3.7388 -1.10789,6e-5 -3.7389,-1.31545 -7.89303,-3.94652 -3.46194,-2.28475 -6.47375,-3.42717 -9.03544,-3.42723 -2.18105,6e-5 -4.34471,1.09055 -6.49098,3.27145 -2.1118,2.18103 -4.10237,4.67356 -5.97169,7.47761 0.24225,3.11572 0.36342,6.42179 0.36349,9.91821 -7e-5,2.70029 -0.10393,5.40053 -0.31157,8.10074 -0.17316,2.66566 -0.48473,5.33129 -0.9347,7.99689 -0.41549,2.66565 -1.03862,5.34858 -1.8694,8.04881 -1.35019,1.31552 -2.47529,2.5791 -3.37531,3.79073 -0.90014,1.17704 -2.42336,3.27146 -4.56965,6.28326 m -35.62248,-0.51927 c 5.78127,4.53503 11.23368,6.80255 16.35726,6.80254 3.04639,1e-5 5.97165,-0.65775 8.7758,-1.97326 2.80405,-1.31549 5.36582,-3.09835 7.68532,-5.34856 4.11955,-4.18883 6.17935,-13.05117 6.17941,-26.58705 -6e-5,-2.38863 -0.19046,-4.86386 -0.5712,-7.42567 -0.38087,-2.59635 -1.004,-5.07157 -1.86941,-7.42568 -0.8309,-2.38863 -2.00793,-4.53497 -3.53109,-6.43905 -1.48865,-1.90396 -3.28881,-3.32332 -5.40049,-4.25808 -3.35805,3.01187 -5.98906,6.02368 -7.89303,9.03544 -4e-5,4.22351 -0.22506,8.34311 -0.67506,12.35882 -0.41547,3.98117 -1.21169,7.94499 -2.38868,11.89147 -1.17707,3.91192 -2.76952,7.35646 -4.77736,10.33364 l -11.89147,9.03544"
         style=""
         id="path3210" />
      <path
         d="m 395.54797,182.48877 c 0.58851,-4.15422 0.88276,-9.00081 0.88277,-14.53979 -1e-5,-5.78127 -0.3635,-11.99529 -1.09048,-18.64209 -0.62314,-0.8308 -1.33282,-1.64434 -2.12904,-2.4406 -0.5539,0.13851 -2.0425,0.88281 -4.46579,2.23289 l -1.35013,-1.35012 c 3.56571,-2.97715 7.2872,-6.2486 11.16448,-9.81436 2.2502,2.35411 4.37923,4.27544 6.38713,5.76399 -0.93472,6.99298 -1.40207,13.62243 -1.40205,19.88835 -2e-5,2.73489 0.0692,4.96778 0.20771,6.69869 0.13845,1.73095 0.53657,3.49649 1.19434,5.29664 0.65773,1.80017 1.67898,3.39263 3.06374,4.77736 0.13845,10e-6 0.27692,-0.0692 0.41542,-0.20771 0.17307,-0.17309 0.34616,-0.27694 0.51928,-0.31157 l 4.72543,-2.33675 0.72699,2.02518 c -4.39658,4.085 -8.79313,7.77187 -13.18967,11.06063 l -5.66013,-8.10074 m 4.15423,-53.17409 c -1.97327,-1.8001 -4.03307,-3.99838 -6.17941,-6.59483 0.69236,-0.69231 1.7136,-1.62701 3.06374,-2.8041 1.38473,-1.17696 2.49252,-2.25014 3.32338,-3.21953 2.73485,3.2196 4.69079,5.26209 5.86784,6.12748 l -6.07555,6.49098"
         style=""
         id="path3212" />
      <path
         d="m 414.6574,187.31806 -0.98663,-1.40205 c 0.62314,-0.69237 1.22896,-1.33281 1.81748,-1.92133 0.55389,-0.58851 1.15972,-1.22896 1.81747,-1.92133 l 3.1676,-3.06374 c 1.73092,-1.62707 4.10229,-2.4406 7.11411,-2.44061 2.70023,1e-5 5.262,0.77893 7.68532,2.33675 l 8.62001,5.71206 c 0.13845,0.13848 0.38078,0.20771 0.72699,0.20771 0.58849,0 1.05584,-0.7616 1.40205,-2.28482 0.38078,-1.52321 0.64042,-3.21952 0.77892,-5.08893 0.17306,-1.86939 0.25961,-3.2022 0.25964,-3.99844 -3e-5,-4.18883 -0.41545,-6.69867 -1.24627,-7.52954 -1.55786,-1.55781 -2.76951,-2.33672 -3.63494,-2.33675 -1.59248,3e-5 -3.01184,0.34621 -4.25809,1.03856 l -10.85291,5.9717 c -1.14242,-1.35011 -2.52716,-3.54838 -4.15423,-6.59483 l 0,-2.95989 0,-4.93314 c 0,-3.46182 0.0346,-6.0409 0.10386,-7.73725 l 16.30534,-10.85291 c 0.34616,0.24238 1.57511,1.00399 3.68687,2.28482 2.14632,1.24632 3.63492,2.30218 4.46579,3.1676 0.58849,0.62318 1.62704,0.93474 3.11567,0.9347 1.03852,4e-5 2.14632,-0.36345 3.32338,-1.09048 1.21161,-0.76157 2.71752,-1.88667 4.51772,-3.37531 l 0.46735,2.12904 -9.81435,8.30845 c -2.76952,-0.20767 -5.43514,-0.64041 -7.99689,-1.2982 -2.56179,-0.69233 -5.53899,-1.71357 -8.93158,-3.06374 -0.55392,0.83089 -0.91741,1.81752 -1.09049,2.95989 -0.17311,1.10783 -0.25965,2.49257 -0.25964,4.15422 -10e-6,1.8002 0.24232,3.91193 0.72699,6.3352 0.51926,2.42332 1.40204,3.63497 2.64832,3.63494 0.86545,3e-5 1.47127,-0.0692 1.81748,-0.20771 l 13.08581,-5.91977 c 1.52318,0.58855 3.51374,1.92136 5.9717,3.99844 0.20767,2.80413 0.31152,5.60823 0.31156,8.41231 -4e-5,5.29665 -0.57124,10.02208 -1.71362,14.1763 -6.95835,2.94257 -12.61848,5.76398 -16.98039,8.46423 -5.91979,-5.43511 -10.47212,-8.15266 -13.65702,-8.15267 -2.56178,1e-5 -5.34857,1.31551 -8.36038,3.94652"
         style=""
         id="path3214" />
      <path
         d="m 470.63559,179.7366 c -0.13848,-2.11173 -0.20772,-5.29663 -0.20771,-9.55472 -1e-5,-1.73091 0.10385,-4.29268 0.31157,-7.68532 0.2077,-3.39259 0.31156,-5.86781 0.31156,-7.42568 0,-0.27691 -0.0519,-0.64041 -0.15578,-1.09048 -0.10386,-0.45001 -0.15579,-0.65772 -0.15578,-0.62314 -10e-6,-0.58848 2.00786,-2.57904 6.02362,-5.9717 4.01574,-3.39257 6.7506,-5.57354 8.2046,-6.5429 l 2.02518,0.41542 c -0.55392,0.55394 -1.28091,1.41941 -2.18096,2.59639 -0.86549,1.17708 -1.6271,2.11178 -2.28483,2.8041 -1.35014,1.55788 -2.33677,3.73884 -2.95988,6.54291 -0.58854,2.80413 -0.88279,5.55631 -0.88278,8.25652 -10e-6,2.87337 0.25963,7.06221 0.77892,12.56653 0.69235,0.9001 1.92131,2.05982 3.68688,3.47917 1.76552,1.38475 3.63492,2.70025 5.6082,3.94651 1.97323,1.21166 3.34066,1.81748 4.1023,1.81748 1.45395,0 2.82138,-2.11173 4.1023,-6.3352 1.28085,-4.22344 2.07707,-7.6853 2.38868,-10.38556 0.20767,-2.21556 0.31153,-4.41384 0.31156,-6.59483 -3e-5,-4.39653 -0.46738,-9.07003 -1.40205,-14.02052 -10.07402,-10.42013 -18.57287,-15.63021 -25.49656,-15.63027 -1.4886,6e-5 -2.35407,0.0347 -2.59639,0.10386 l -4.88121,1.92133 -1.35013,-1.60977 c 3.66956,-2.11167 8.37768,-4.51766 14.12437,-7.21796 9.07003,2.52721 19.02286,8.04887 29.8585,16.56497 0.10381,2.00792 0.15573,4.9505 0.15578,8.82773 -5e-5,3.42727 -0.0866,6.81989 -0.25964,10.17785 -0.13852,3.32341 -0.4674,6.56024 -0.98663,9.71051 -0.51932,3.11568 -1.31555,5.98902 -2.38868,8.62001 l -19.16136,14.48786 c -2.0079,-1.3155 -3.80806,-2.54446 -5.4005,-3.68687 -1.55785,-1.17703 -3.11568,-2.44061 -4.6735,-3.79073 -1.52323,-1.38474 -3.04644,-2.94257 -4.56965,-4.6735"
         id="path3216"
         inkscape:connector-curvature="0" />
      <path
         d="m 522.61535,181.13865 0,-3.21953 c -1e-5,-8.93156 0.60581,-18.3478 1.81747,-28.24873 5.95438,-3.28872 12.18571,-7.44294 18.69402,-12.46268 5.33122,3.60038 10.55861,5.97175 15.6822,7.11411 0.34614,4.50045 0.51923,8.5162 0.51928,12.04726 -5e-5,7.75457 -0.74435,15.16294 -2.2329,22.2251 -2.56181,1.59246 -4.58699,2.83873 -6.07556,3.73881 -1.45401,0.86546 -3.3061,1.90402 -5.55627,3.11567 -2.21562,1.21165 -4.18887,2.21558 -5.91977,3.01181 -1.73095,0.83084 -3.89461,1.78285 -6.49098,2.85603 -3.04645,-2.70025 -5.2101,-4.6735 -6.49098,-5.91977 -1.28089,-1.24627 -2.5964,-2.66563 -3.94651,-4.25808 m 9.13929,-5.86785 c 1.76553,2.00789 3.80802,3.92922 6.12749,5.76399 2.35403,1.83479 4.39652,2.75218 6.12748,2.75218 0.41539,0 1.19431,-0.70968 2.33675,-2.12905 1.28086,-1.38473 2.18094,-2.95987 2.70025,-4.72543 0.55386,-1.76553 1.0039,-3.9465 1.35012,-6.5429 0.55386,-3.32336 0.83081,-7.11409 0.83085,-11.3722 -4e-5,-2.80407 -0.1039,-5.64278 -0.31157,-8.51616 -1.4194,-0.10382 -2.99454,-0.36345 -4.72543,-0.77891 -1.73096,-0.41539 -3.34072,-0.84812 -4.82929,-1.2982 -1.454,-0.48462 -3.58304,-1.24623 -6.38712,-2.28482 -1.69633,2.11177 -2.85605,4.6043 -3.47917,7.4776 -0.58853,2.87337 -0.88278,6.05828 -0.88277,9.55472 -10e-6,3.80806 0.38079,7.84112 1.14241,12.09918"
         style=""
         id="path3218" />
      <path
         d="m 576.77605,182.38491 c 0.45004,-3.77341 0.67506,-7.23526 0.67507,-10.38556 -0.0346,-1.24625 -0.0692,-2.49252 -0.10386,-3.7388 -10e-6,-1.24625 -0.0346,-2.49252 -0.10386,-3.73881 -0.0692,-1.24624 -0.12117,-2.4752 -0.15578,-3.68687 -0.27696,-4.98504 -0.41543,-8.75846 -0.41542,-11.32027 l -2.75218,-2.75217 -4.56964,2.54446 -1.19434,-1.24627 11.73568,-9.91821 5.29664,5.55628 0,4.77736 13.50123,-10.64521 c 4.77733,2.87339 9.0354,4.89857 12.77425,6.07556 l 0,4.15422 c 5.5043,-3.80799 10.07394,-7.1833 13.70894,-10.12592 6.0928,3.28881 10.3855,5.31399 12.8781,6.07556 -0.17316,1.93868 -0.34625,4.69085 -0.51928,8.25652 -0.13854,3.56574 -0.20778,6.87181 -0.20771,9.91821 -7e-5,4.25811 0.10379,8.51618 0.31157,12.77425 1.59238,2.38869 2.85596,4.05037 3.79073,4.98507 2.28475,-0.90008 4.0676,-1.78285 5.34857,-2.64832 l 0.62313,1.81747 -12.98196,11.26834 c -0.58858,-1.1078 -2.52721,-3.9119 -5.81591,-8.41231 1.10773,-5.22739 1.66163,-10.74904 1.66169,-16.56497 -6e-5,-4.25806 -0.38087,-8.72385 -1.14241,-13.39738 -0.17316,-1.24623 -1.40211,-2.26748 -3.68688,-3.06374 -2.28488,-0.83081 -4.60432,-1.48856 -6.95833,-1.97326 -2.42334,1.17707 -4.76009,2.52719 -7.01025,4.05037 l 0,23.00402 c -5e-5,1.17705 0.13843,1.95597 0.41542,2.33676 l 4.88122,7.01025 -9.1393,7.73725 c -1.0386,-2.31945 -2.70028,-4.86391 -4.98507,-7.63339 0.93466,-3.91189 1.40201,-8.74117 1.40205,-14.48786 -4e-5,-4.84658 -0.36353,-10.6971 -1.09048,-17.55161 -1.10783,-0.96928 -2.42334,-1.74819 -3.94652,-2.33675 -1.48863,-0.58847 -3.54843,-1.26354 -6.17941,-2.02518 l -7.63339,4.36193 0,20.77113 c -2e-5,2.83874 0.17308,4.46581 0.51928,4.88122 l 4.6735,6.17941 -8.82773,7.42568 -4.77736,-8.30846"
         style=""
         id="path3220" />
    </g>
  </g>
</svg>
